<svg xmlns="http://www.w3.org/2000/svg" xml:space="preserve" style="fill-rule:evenodd;clip-rule:evenodd;stroke-linecap:round;stroke-linejoin:round" viewBox="0 0 32 32"><path d="M14.668 6.732C12.254 3.919 8.221 3.05 5.196 5.626c-3.024 2.575-3.45 6.882-1.075 9.928 1.975 2.533 7.951 7.875 9.909 9.604.219.194.329.291.457.329a.614.614 0 0 0 .345 0c.128-.038.237-.135.457-.329 1.958-1.729 7.934-7.071 9.909-9.604 2.375-3.046 2.001-7.38-1.076-9.928-3.076-2.549-7.041-1.707-9.454 1.106Z" style="fill:none;stroke:#000;stroke-width:2.68px"/><circle cx="24.387" cy="22.399" r="7.053" style="fill:#0078e6"/><clipPath id="a"><circle cx="24.387" cy="22.399" r="7.053"/></clipPath><g clip-path="url(#a)"><path d="m20.42 20.372 3.967 1.983 3.968-1.983c-.045-.529-.485-.926-.97-.926H21.39c-.485-.044-.926.397-.97.926Z" style="fill:#fff;fill-rule:nonzero"/><path d="m28.355 21.474-3.968 1.983-3.967-1.983v2.909c0 .529.441.97.97.97h5.951a.978.978 0 0 0 .969-.97v-2.909h.045Z" style="fill:#fff;fill-rule:nonzero"/></g><circle cx="24.387" cy="22.399" r="7.053" style="fill:none;stroke:#000;stroke-width:.35px;stroke-miterlimit:1.5"/></svg>